<svg xmlns="http://www.w3.org/2000/svg" width="97" height="20.478" viewBox="0 0 97 20.478">
  <g id="Group_27" data-name="Group 27" transform="translate(-1093.351 -714)">
    <circle id="Ellipse_9" data-name="Ellipse 9" cx="4" cy="4" r="4" transform="translate(1093.351 721)" fill="#d1d1d1"/>
    <circle id="Ellipse_10" data-name="Ellipse 10" cx="4" cy="4" r="4" transform="translate(1182.351 721)" fill="#d1d1d1"/>
    <rect id="Rectangle_15" data-name="Rectangle 15" width="0.988" height="72" transform="translate(1177.361 724) rotate(90)" fill="#d1d1d1"/>
    <rect id="Rectangle_16" data-name="Rectangle 16" width="26" height="6" transform="translate(1129 722)" fill="#fff"/>
    <g id="ic_flight_24px" transform="translate(1130.89 734.478) rotate(-90)">
      <path id="Path_93" data-name="Path 93" d="M10.18,9" transform="translate(-1.363 -1.237)" fill="#d1d1d1"/>
      <path id="Path_94" data-name="Path 94" d="M22.478,8.467v2.156l-8.623,5.389V21.94a1.617,1.617,0,1,1-3.233,0V16.012L2,10.623V8.467l8.623,2.695V5.233L8.467,3.617V2l3.772,1.078L16.012,2V3.617L13.856,5.233v5.928Z" transform="translate(-2 -2)" fill="#d1d1d1"/>
    </g>
  </g>
</svg>
